# xmcd
# Track frame offsets:
# 150
# 17685
# 33822
# 51937
# 70892
# 86355
# 105160
# 118355
# 134362
# 152575
# 170207
# 188647
# 206627
# 225140
#
# Disc length: 3242 seconds
# Revision: 0
# Processed by: cddbd v1.4PL0 Copyright (c) Steve Scherf et al.
# Submitted via: VisiTrax 2.9.5.181 - For more info visit www.synapsa.com
#
DISCID=ae0ca80e
DTITLE=Dave Sheriff - Love To Line Dance 2
DYEAR=1900
DGENRE=
TTITLE0=Backtrack
TTITLE1=Whisper Softly
TTITLE2=And I Worry
TTITLE3=Midnight Waltz
TTITLE4=Drinking With Both Hands
TTITLE5=Dancing Feet
TTITLE6=Whole Worlds Dancing
TTITLE7=Hair Of The Dog
TTITLE8=Stetson Hat
TTITLE9=Modification
TTITLE10=Oh Johnny
TTITLE11=Jackknife
TTITLE12=Heartbeat
TTITLE13=Heart Made Of Stone
EXTD=
EXTT0=
EXTT1=
EXTT2=
EXTT3=
EXTT4=
EXTT5=
EXTT6=
EXTT7=
EXTT8=
EXTT9=
EXTT10=
EXTT11=
EXTT12=
EXTT13=
PLAYORDER=
